<?xml version="1.0" encoding="UTF-8" standalone="no"?>
<svg
   height="542.09607"
   width="537.14093"
   version="1.0"
   viewBox="-76.17645 -128.1515 295.5152 521.02818"
   id="svg109"
   sodipodi:docname="EmacsLogo.svg"
   inkscape:version="1.1 (c68e22c387, 2021-05-23)"
   xmlns:inkscape="http://www.inkscape.org/namespaces/inkscape"
   xmlns:sodipodi="http://sodipodi.sourceforge.net/DTD/sodipodi-0.dtd"
   xmlns:xlink="http://www.w3.org/1999/xlink"
   xmlns="http://www.w3.org/2000/svg"
   xmlns:svg="http://www.w3.org/2000/svg">
  <sodipodi:namedview
     id="namedview111"
     pagecolor="#ffffff"
     bordercolor="#666666"
     borderopacity="1.0"
     inkscape:pageshadow="2"
     inkscape:pageopacity="0.0"
     inkscape:pagecheckerboard="true"
     showgrid="false"
     fit-margin-top="0"
     fit-margin-left="0"
     fit-margin-right="0"
     fit-margin-bottom="0"
     inkscape:zoom="0.88916667"
     inkscape:cx="235.61387"
     inkscape:cy="196.25117"
     inkscape:window-width="1920"
     inkscape:window-height="1058"
     inkscape:window-x="0"
     inkscape:window-y="0"
     inkscape:window-maximized="1"
     inkscape:current-layer="svg109" />
  <defs
     id="defs101">
    <linearGradient
       id="b">
      <stop
         offset="0"
         stop-color="#411f5d"
         id="stop84" />
      <stop
         offset="1"
         stop-color="#5b2a85"
         id="stop86" />
    </linearGradient>
    <linearGradient
       id="a">
      <stop
         offset="0"
         stop-color="#8381c5"
         id="stop89" />
      <stop
         offset=".566"
         stop-color="#7e55b3"
         stop-opacity=".996"
         id="stop91" />
      <stop
         offset="1"
         stop-color="#a52ecb"
         stop-opacity=".992"
         id="stop93" />
    </linearGradient>
    <linearGradient
       xlink:href="#a"
       id="d"
       gradientUnits="userSpaceOnUse"
       gradientTransform="matrix(0.87386,0,0,0.82818,62.46531,125.74912)"
       spreadMethod="pad"
       x1="-122.202"
       y1="-161.851"
       x2="236.614"
       y2="300.73999" />
    <linearGradient
       xlink:href="#b"
       id="e"
       gradientUnits="userSpaceOnUse"
       gradientTransform="matrix(0.98685,0,0,0.98685,-180.5077,-122.00688)"
       x1="447.80899"
       y1="396.60699"
       x2="173.94501"
       y2="66.017998" />
    <filter
       id="c"
       x="-0.053658211"
       width="1.1073164"
       y="-0.053115636"
       height="1.1062313"
       color-interpolation-filters="sRGB">
      <feGaussianBlur
         stdDeviation="8.785"
         id="feGaussianBlur98" />
    </filter>
  </defs>
  <path
     transform="matrix(0.98685,0,0,0.98685,-180.5077,-122.00688)"
     d="m 491.67,257.76 c 0,131.794 -105.76,238.634 -236.222,238.634 -130.462,0 -236.222,-106.84 -236.222,-238.635 0,-131.794 105.76,-238.635 236.222,-238.635 130.461,0 236.221,106.84 236.221,238.635 z"
     opacity="0.405"
     fill="#211f46"
     fill-opacity="0.996"
     stroke="#0a0b1b"
     stroke-width="8.533"
     filter="url(#c)"
     id="path103" />
  <path
     d="m 304.6963,132.36212 c 0,130.061 -104.36999,235.497 -233.11499,235.497 -128.746002,0 -233.11601,-105.436 -233.11601,-235.497 0,-130.0609964 104.370008,-235.497 233.11601,-235.497 128.745,0 233.11499,105.4360036 233.11499,235.497 z"
     fill="url(#d)"
     stroke="url(#e)"
     stroke-width="13.338"
     id="path105"
     style="fill:url(#d);stroke:url(#e)" />
  <path
     d="m -8.541692,297.77812 c 0,0 19.738,1.396 45.131002,-0.842 10.283,-0.906 49.327,-4.74 78.517,-11.142 0,0 35.59,-7.617 54.63,-14.634 19.923,-7.341 30.764,-13.573 35.643,-22.401 -0.212,-1.81 1.503,-8.225 -7.685,-12.078 -23.488,-9.852 -50.73,-8.07 -104.633,-9.213 -59.778002,-2.054 -79.663002,-12.06 -90.256002,-20.118 -10.158,-8.176 -5.05,-30.793 38.474002,-50.715 21.925,-10.61 107.87,-30.187 107.87,-30.187 -28.944,-14.308 -82.918,-39.459997 -94.013,-44.889997 -9.73,-4.764 -25.303002,-11.936 -28.678002,-20.614 -3.827,-8.331 9.038,-15.507 16.225002,-17.563 23.144,-6.676 55.818,-10.825 85.554,-11.29 14.948,-0.235 17.374,-1.197 17.374,-1.197 20.624,-3.42 34.201,-17.531 28.544,-39.8779994 -5.078,-22.8100006 -31.861,-36.2140006 -57.313,-31.5740006 -23.969,4.37 -81.738002,21.15 -81.738002,21.15 71.407002,-0.618 83.359002,0.574 88.697002,8.037 3.152,4.4070006 -1.433,10.45000054 -20.477,13.5600006 -20.733,3.387 -63.831,7.465 -63.831,7.465 -41.345002,2.4549994 -70.468002,2.6199994 -79.203002,21.1129994 -5.706,12.082 6.085,22.763 11.254,29.45 21.84,24.288 53.388,37.388 73.695002,47.034997 7.64,3.63 30.058,10.484 30.058,10.484 -65.878002,-3.624 -113.400002,16.605 -141.276002,39.896 -31.529,29.163 -17.582,63.924 47.012,85.327 38.152,12.641 57.073002,18.587 113.982002,13.462 33.52,-1.807 38.804,-0.731 39.138,2.02 0.47,3.871 -37.231,13.49 -47.524,16.46 -26.185,7.553 -94.828002,22.804 -95.171002,22.878 z"
     fill="#ffffff"
     fill-rule="evenodd"
     id="path107" />
</svg>
